<mxfile host="app.diagrams.net" modified="2024-04-06T06:12:36.548Z" agent="Mozilla/5.0 (Macintosh; Intel Mac OS X 10.15; rv:124.0) Gecko/20100101 Firefox/124.0" etag="-2oaJarGCi9st25UOzcz" version="24.2.2" type="github">
  <diagram name="Page-1" id="JLg1p_t7-5PP-06sZwxw">
    <mxGraphModel dx="794" dy="1626" grid="1" gridSize="10" guides="1" tooltips="1" connect="1" arrows="1" fold="1" page="1" pageScale="1" pageWidth="827" pageHeight="1169" math="0" shadow="0">
      <root>
        <mxCell id="0" />
        <mxCell id="1" parent="0" />
        <mxCell id="yqwZDCIrZYdzIZNuXO6W-6" value="" style="edgeStyle=orthogonalEdgeStyle;rounded=0;orthogonalLoop=1;jettySize=auto;html=1;" edge="1" parent="1" source="yqwZDCIrZYdzIZNuXO6W-1" target="yqwZDCIrZYdzIZNuXO6W-4">
          <mxGeometry relative="1" as="geometry" />
        </mxCell>
        <mxCell id="yqwZDCIrZYdzIZNuXO6W-1" value="service worker is ready&lt;br&gt;&lt;b&gt;navigator.serviceWorker.ready(sw =&amp;gt; {&lt;br&gt;})&lt;/b&gt;" style="rounded=1;whiteSpace=wrap;html=1;" vertex="1" parent="1">
          <mxGeometry x="125" y="40" width="190" height="120" as="geometry" />
        </mxCell>
        <mxCell id="yqwZDCIrZYdzIZNuXO6W-2" value="register a sync task with&lt;br&gt;&lt;b&gt;sw.sync.register(&quot;tag-name&quot;)&lt;/b&gt;" style="rounded=1;whiteSpace=wrap;html=1;" vertex="1" parent="1">
          <mxGeometry x="120" y="290" width="200" height="130" as="geometry" />
        </mxCell>
        <mxCell id="yqwZDCIrZYdzIZNuXO6W-5" value="" style="edgeStyle=orthogonalEdgeStyle;rounded=0;orthogonalLoop=1;jettySize=auto;html=1;" edge="1" parent="1" source="yqwZDCIrZYdzIZNuXO6W-4" target="yqwZDCIrZYdzIZNuXO6W-2">
          <mxGeometry relative="1" as="geometry" />
        </mxCell>
        <mxCell id="yqwZDCIrZYdzIZNuXO6W-4" value="&lt;div&gt;write the data to IndexedDB store in the synced objects table&lt;/div&gt;" style="rounded=1;whiteSpace=wrap;html=1;" vertex="1" parent="1">
          <mxGeometry x="135" y="180" width="170" height="80" as="geometry" />
        </mxCell>
        <mxCell id="yqwZDCIrZYdzIZNuXO6W-7" value="In the application JS/TS file" style="text;html=1;align=center;verticalAlign=middle;whiteSpace=wrap;rounded=0;" vertex="1" parent="1">
          <mxGeometry x="190" y="-20" width="60" height="30" as="geometry" />
        </mxCell>
      </root>
    </mxGraphModel>
  </diagram>
</mxfile>
